# xmcd
#
# Track frame offsets:
#	150
#	9080
#	20908
#	29904
#	39751
#	49372
#	60739
#	69991
#	80148
#	89679
#	101829
#	111251
#	123982
#	135944
#	145743
#	158356
#	168696
#	181483
#	190763
#	201501
#	215357
#	227345
#	237602
#	249857
#
# Disc length: 3518 seconds
#
# Revision: 0
# Processed by: cddbd v1.5.2PL0 Copyright (c) Steve Scherf et al.
# Submitted via: EasyCDDAExtractor 11.0.2.1
#
DISCID=510dbc18
DTITLE=Jim Reeves - Girls I Have Known-Intimate Jim Reeves
DYEAR=1900
DGENRE=
TTITLE0=Marie
TTITLE1=Mona Lisa
TTITLE2=Juanita
TTITLE3=Charmaine
TTITLE4=Margie
TTITLE5=Anna Marie
TTITLE6=Sweet Sue
TTITLE7=Linda
TTITLE8=Ramona
TTITLE9=Maria Elena
TTITLE10=My Mary
TTITLE11=Good Night Irene
TTITLE12=Dark Moon
TTITLE13=Oh, How I Miss You Tonight
TTITLE14=Take Me in Your Arms and Hold Me
TTITLE15=I'm Gettin' Better
TTITLE16=Almost
TTITLE17=You're Free to Go
TTITLE18=You're the Only Good Thing (That's Happened to Me)
TTITLE19=Have I Stayed Away Too Long
TTITLE20=No One to Cry To
TTITLE21=I Was Just Walking Out the Door
TTITLE22=Room Full of Roses
TTITLE23=We Could
EXTD=
EXTT0=
EXTT1=
EXTT2=
EXTT3=
EXTT4=
EXTT5=
EXTT6=
EXTT7=
EXTT8=
EXTT9=
EXTT10=
EXTT11=
EXTT12=
EXTT13=
EXTT14=
EXTT15=
EXTT16=
EXTT17=
EXTT18=
EXTT19=
EXTT20=
EXTT21=
EXTT22=
EXTT23=
PLAYORDER=
